<svg xmlns="http://www.w3.org/2000/svg" width="275.611" height="275.58" viewBox="0 0 275.611 275.58">
  <path id="Flat-Tick-Icon-SVG-09ijuiohj" d="M189.882,0A137.79,137.79,0,1,0,327.7,137.79,137.8,137.8,0,0,0,189.882,0m68.212,102.62-88.958,88.958a4.679,4.679,0,0,1-6.64,0L121.7,150.752a4.276,4.276,0,0,1,0-6.068l12.645-12.645a4.276,4.276,0,0,1,6.068,0l24.209,24.178a1.707,1.707,0,0,0,2.415,0l72.31-72.342a4.314,4.314,0,0,1,6.1,0l12.645,12.677a4.276,4.276,0,0,1,0,6.068" transform="translate(-52.092)" fill="#88ba00"/>
</svg>
