<svg xmlns="http://www.w3.org/2000/svg" width="141.845" height="189.988" viewBox="0 0 141.845 189.988">
  <path id="Cart-SVG-0987uikfg" d="M514.976,787.915l0-.005a21.531,21.531,0,0,0-10.023-13.317,21.024,21.024,0,0,0-16.142-2.2,21.547,21.547,0,0,0-15.337,15.849H446.357a21.308,21.308,0,0,0-41.546,0h-2.778c-8.186,0-14.848-7.1-14.848-15.831,0-8.435,6.471-15.834,13.84-15.834l13.339.028c.18,0,.355.025.535.025h11.736l43.873.09h.01a5.121,5.121,0,0,0,.9-.09h6.264a24.716,24.716,0,0,0,24.424-22.126c.2-1.7.386-3.4.727-5.079l7.745-38.017c2.584-12.7-2.944-25.389-13.759-31.569a28.724,28.724,0,0,0-14.236-3.787H410a28.72,28.72,0,0,0-14.231,3.787,27.983,27.983,0,0,0-7.778,6.61c-1.783-9.331-3.4-17.879-3.764-20.369a11.21,11.21,0,0,1,2.252-8.738,5.147,5.147,0,0,1,3.8-1.974h18.46a5.137,5.137,0,0,0,0-10.273H390.28a15.231,15.231,0,0,0-11.572,5.523,21.419,21.419,0,0,0-4.645,16.934c.467,3.221,2.629,14.522,4.921,26.485.836,4.368,1.681,8.782,2.446,12.818a31.3,31.3,0,0,0,.579,4.555l7.74,38.013c.351,1.728.546,3.478.747,5.234a24.918,24.918,0,0,0,5.026,12.4c-10.521,2.784-18.61,13.255-18.61,25.358,0,14.394,11.272,26.1,25.121,26.1h2.778a21.307,21.307,0,0,0,41.546,0h27.132c.027.112.04.224.069.336a21.536,21.536,0,0,0,10.032,13.32,21.055,21.055,0,0,0,16.132,2.2,21.726,21.726,0,0,0,15.254-26.453M400.864,668.759A18.44,18.44,0,0,1,410,666.327h72.583a18.444,18.444,0,0,1,9.14,2.432c6.847,3.913,10.458,12.385,8.793,20.6l-7.745,38.017c-.4,1.964-.637,3.953-.888,6.1a14.406,14.406,0,0,1-14.2,12.879H426.667l-12.3-.025A14.408,14.408,0,0,1,400.7,733.49c-.231-2.046-.477-4.093-.888-6.114l-5.441-26.723c-.362-2.441-1.381-7.969-2.686-14.856a19.066,19.066,0,0,1,9.18-17.038m24.72,136.051a11.432,11.432,0,1,1,11.131-11.43,11.294,11.294,0,0,1-11.131,11.43m71.5-.369a10.842,10.842,0,0,1-8.312-1.139,11.529,11.529,0,0,1,2.674-20.979,10.847,10.847,0,0,1,8.316,1.135,11.319,11.319,0,0,1,5.262,7.021l.005.005a11.428,11.428,0,0,1-7.945,13.957" transform="translate(-373.831 -625.097)"/>
</svg>
