<svg xmlns="http://www.w3.org/2000/svg" width="220.711" height="214.071" viewBox="0 0 220.711 214.071">
  <path id="Home-icon-SVG-0llcdmks" d="M131.6,60.89,38.956,149.911a19.181,19.181,0,0,0-5.846,13.757v98.394a8.122,8.122,0,0,0,8.1,8.133h62.08a8.122,8.122,0,0,0,8.1-8.133V230.831a32.073,32.073,0,0,1,64.145,0v31.231a8.122,8.122,0,0,0,8.1,8.133h62.048a8.149,8.149,0,0,0,8.133-8.133V163.668a19.085,19.085,0,0,0-5.878-13.757L155.332,60.89a17.157,17.157,0,0,0-23.733,0" transform="translate(-33.11 -56.124)" fill="#2fa7ff"/>
</svg>
